<svg xmlns="http://www.w3.org/2000/svg" width="70" height="117" viewBox="0 0 70 117"><defs><style>.a,.e{fill:#f05123;}.a,.b{font-size:10px;}.a{font-family:Barlow-Bold, Barlow;font-weight:700;}.b{fill:#595959;font-family:Barlow-Regular, Barlow;}.c,.g{fill:none;}.c,.d{stroke:#f05123;}.d{fill:#fff6e9;}.f{stroke:none;}</style></defs><g transform="translate(-47 -182)"><text class="a" transform="translate(65 192)"><tspan x="0" y="0">Geral</tspan></text><text class="b" transform="translate(65 227)"><tspan x="0" y="0">Bairros</tspan></text><text class="b" transform="translate(65 262)"><tspan x="0" y="0">Instituições</tspan></text><text class="b" transform="translate(65 297)"><tspan x="0" y="0">Parceiros</tspan></text><line class="c" y2="105" transform="translate(52.5 188.5)"/><g class="d" transform="translate(58 229) rotate(180)"><rect class="f" width="11" height="11" rx="1"/><rect class="g" x="0.5" y="0.5" width="10" height="10" rx="0.5"/></g><g class="d" transform="translate(58 264) rotate(180)"><rect class="f" width="11" height="11" rx="1"/><rect class="g" x="0.5" y="0.5" width="10" height="10" rx="0.5"/></g><g class="d" transform="translate(58 299) rotate(180)"><rect class="f" width="11" height="11" rx="1"/><rect class="g" x="0.5" y="0.5" width="10" height="10" rx="0.5"/></g><rect class="e" width="11" height="11" rx="1" transform="translate(58 194) rotate(180)"/></g></svg>